HIERARCHY
ROOT Hips
{
	OFFSET 0.00000 0.00000 0.00000
	CHANNELS 6 Xposition Yposition Zposition Yrotation Zrotation Xrotation 
	JOINT Lumbar
	{
		OFFSET 0 0 0
		CHANNELS 3 Zrotation Xrotation Yrotation
		JOINT Neck
		{
			OFFSET 0.00 0.2701 0.00
			CHANNELS 3 Zrotation Xrotation Yrotation
			End Site
			{
				OFFSET 0.00 0.1379 0.00
			}
		}
		JOINT RightShoulder
		{
			OFFSET 0.0119 0.2289 0.1181
			CHANNELS 3 Zrotation Xrotation Yrotation
			JOINT RightElbow
			{
				OFFSET 0.00 -0.1475 0.00
				CHANNELS 2 Zrotation Yrotation
				JOINT RightWrist
				{
					OFFSET 0.00 -0.1605 0.00
					CHANNELS 2 Zrotation Xrotation
					End Site
					{
						OFFSET 0.0040 -0.1068 0.0006
					}
				}
			}
		}
		JOINT LeftShoulder
		{
			OFFSET 0.0119 0.2289 -0.1181
			CHANNELS 3 Zrotation Xrotation Yrotation
			JOINT LeftElbow
			{
				OFFSET 0.00 -0.1475 0.00
				CHANNELS 2 Zrotation Yrotation
				JOINT LeftWrist
				{
					OFFSET 0.00 -0.1605 0.00
					CHANNELS 2 Zrotation Xrotation
					End Site
					{
						OFFSET 0.0040 -0.1068 -0.0006
					}
				}
			}
		}
	}
	JOINT RightHip
	{
		OFFSET 0.0316 -0.0424 0.0458
		CHANNELS 3 Zrotation Xrotation Yrotation
		JOINT RightKnee
		{
			OFFSET 0.00 -0.2438 0.00
			CHANNELS 1 Zrotation
			JOINT RightAnkle
			{
				OFFSET 0.00 -0.2449 0.00
				CHANNELS 3 Zrotation Xrotation Yrotation
				End Site
				{
					OFFSET 0.1237 -0.0542 0.0051
				}
			}
		}
	}
	JOINT LeftHip
	{
		OFFSET 0.0316 -0.0424 -0.0458
		CHANNELS 3 Zrotation Xrotation Yrotation
		JOINT LeftKnee
		{
			OFFSET 0.00 -0.2438 0.00
			CHANNELS 1 Zrotation
			JOINT LeftAnkle
			{
				OFFSET 0.00 -0.2449 0.00
				CHANNELS 3 Zrotation Xrotation Yrotation
				End Site
				{
					OFFSET 0.1237 -0.0542 -0.0051
				}
			}
		}
	}
}
MOTION
Frames: 29
Frame Time: 0.02
0 0.57926 -0 182.65625 0 -3.03734 2.89485 2.24496 -3.2993 -34.556 5.12584 3.11554 -15.04954 -78.42936 -82.27691 22.69627 71.23236 -20.721 -1.8579 -9.0671 74.68594 75.38574 25.81493 -66.20418 -31.6424 1.77937 -4.09846 2.89259 -0.07389 -5.70447 -2.74146 -3.84622 -8.2389 -1.89595 4.83443 1.08821 -7.41721 4.4288 2.91142 1.576
-0 0.57926 -2e-05 182.65644 0 -3.0387 2.87908 2.24655 -3.2954 -34.5701 5.11675 3.11225 -14.90927 -78.38977 -82.15199 22.70411 71.3 -20.69504 -1.84099 -8.81781 74.66725 75.16966 25.80226 -66.20211 -31.62912 1.81548 -4.1005 2.89716 -0.03939 -5.70043 -2.74159 -3.84556 -8.27147 -1.89681 4.83734 1.08235 -7.41583 4.42872 2.91096 1.58084
-0 0.57926 -4e-05 182.65663 0 -3.04004 2.86347 2.24814 -3.29151 -34.58422 5.10768 3.10896 -14.76926 -78.3504 -82.02738 22.71187 71.36735 -20.6692 -1.82421 -8.56904 74.64856 74.954 25.78963 -66.20045 -31.61573 1.85135 -4.10263 2.90169 -0.00518 -5.69633 -2.74177 -3.84491 -8.30377 -1.89776 4.8402 1.07662 -7.41439 4.42863 2.91047 1.58559
-1e-05 0.57926 -6e-05 182.65674 0 -3.04133 2.8484 2.24975 -3.28751 -34.59888 5.09852 3.1057 -14.6291 -78.31127 -81.90322 22.71947 71.43447 -20.64346 -1.80768 -8.31966 74.63007 74.73792 25.77675 -66.19986 -31.60201 1.88655 -4.10516 2.90606 0.02815 -5.69174 -2.74218 -3.84431 -8.3352 -1.89908 4.84296 1.07134 -7.41257 4.42843 2.90993 1.59
-0 0.57926 -8e-05 182.6572 0 -3.04293 2.83053 2.25124 -3.28397 -34.61104 5.08973 3.10236 -14.48994 -78.27057 -81.77719 22.728 71.50313 -20.61706 -1.78974 -8.07317 74.61098 74.52407 25.76488 -66.19296 -31.5903 1.92525 -4.10563 2.91123 0.06607 -5.68952 -2.74141 -3.84347 -8.37111 -1.89848 4.8463 1.06363 -7.41264 4.42876 2.90975 1.59621
-2e-05 0.57926 -9e-05 182.65694 0 -3.04385 2.81858 2.25296 -3.27956 -34.62826 5.08025 3.09915 -14.34867 -78.23343 -81.65488 22.73449 71.56824 -20.59216 -1.77485 -7.82106 74.59285 74.30573 25.75107 -66.19981 -31.57418 1.95653 -4.1104 2.91471 0.09431 -5.68243 -2.74308 -3.84314 -8.39759 -1.90191 4.84841 1.0611 -7.40879 4.428 2.90877 1.59859
-9e-05 0.57926 -8e-05 182.65454 0 -3.04286 2.82337 2.25545 -3.27174 -34.66227 5.06783 3.09651 -14.19858 -78.2037 -81.54302 22.73586 71.62695 -20.57019 -1.76764 -7.54382 74.57997 74.06818 25.72955 -66.24277 -31.54642 1.96714 -4.12821 2.91348 0.09502 -5.65979 -2.75247 -3.84417 -8.39686 -1.91725 4.84706 1.07319 -7.39289 4.42365 2.90563 1.59006
-0.00018 0.57926 -6e-05 182.65145 0 -3.04119 2.83407 2.25812 -3.26322 -34.70091 5.05488 3.09397 -14.04681 -78.17794 -81.43483 22.73506 71.68155 -20.54991 -1.76361 -7.26235 74.56764 73.82708 25.7064 -66.29996 -31.5141 1.9703 -4.15019 2.91056 0.08611 -5.63255 -2.76416 -3.84572 -8.38678 -1.93654 4.84447 1.09046 -7.37323 4.41828 2.90168 1.5777
-0.00026 0.57926 -5e-05 182.64878 0 -3.03987 2.84181 2.26061 -3.25569 -34.73565 5.04285 3.09125 -13.89747 -78.15194 -81.32458 22.73492 71.7358 -20.52964 -1.75861 -6.98876 74.55326 73.59175 25.68557 -66.35199 -31.48344 1.97698 -4.1695 2.90844 0.08214 -5.60877 -2.77413 -3.84707 -8.38175 -1.95352 4.84247 1.10517 -7.35609 4.41376 2.89809 1.56727
-0.00035 0.57926 -4e-05 182.64566 0 -3.03838 2.85069 2.26354 -3.24538 -34.77799 5.02799 3.0891 -13.74079 -78.11946 -81.21566 22.7362 71.79918 -20.50619 -1.75168 -6.69014 74.5462 73.33894 25.65833 -66.39871 -31.4544 1.9831 -4.19197 2.90619 0.07579 -5.57934 -2.7869 -3.84829 -8.37341 -1.97267 4.84035 1.12078 -7.33561 4.40767 2.89453 1.55605
-0.00044 0.57925 -2e-05 182.6433 0 -3.03708 2.85862 2.26557 -3.24063 -34.80559 5.01887 3.0858 -13.5994 -78.10126 -81.10529 22.73396 71.84285 -20.48967 -1.74944 -6.44256 74.52436 73.12167 25.64374 -66.45959 -31.42104 1.98861 -4.20895 2.90384 0.07206 -5.56042 -2.79444 -3.8499 -8.36965 -1.98828 4.8382 1.13572 -7.3211 4.40455 2.89072 1.54557
-0.0005 0.57926 0 182.64314 0 -3.03642 2.86226 2.26537 -3.25193 -34.79126 5.02609 3.079 -13.49723 -78.12286 -80.98602 22.72295 71.8309 -20.4925 -1.76002 -6.33766 74.45868 73.0035 25.66736 -66.55865 -31.37566 1.99432 -4.20908 2.90146 0.07831 -5.57293 -2.78637 -3.85249 -8.38164 -1.99281 4.83611 1.14769 -7.32476 4.41024 2.88638 1.53815
-0.00057 0.57926 3e-05 182.64376 0 -3.03598 2.86479 2.26419 -3.26875 -34.76194 5.03902 3.0711 -13.41107 -78.1584 -80.86583 22.70842 71.79967 -20.50212 -1.7751 -6.28417 74.37863 72.92121 25.70327 -66.67105 -31.32631 1.99968 -4.20365 2.8991 0.08745 -5.59592 -2.77307 -3.85545 -8.39839 -1.99371 4.83406 1.15876 -7.33443 4.41889 2.88183 1.53162
-0.00063 0.57926 5e-05 182.64406 0 -3.03547 2.86799 2.26325 -3.2827 -34.73952 5.04913 3.06391 -13.3199 -78.18669 -80.74874 22.69522 71.77872 -20.50822 -1.78767 -6.20663 74.30704 72.82239 25.73166 -66.77559 -31.27954 2.0051 -4.20119 2.89686 0.09504 -5.61327 -2.76257 -3.85825 -8.41244 -1.99651 4.8321 1.17013 -7.34083 4.42593 2.8774 1.52463
-0.0007 0.57926 8e-05 182.64423 0 -3.0348 2.8707 2.26317 -3.29819 -34.71691 5.06025 3.05587 -13.21939 -78.21908 -80.62073 22.68303 71.75125 -20.5162 -1.80225 -6.13169 74.22732 72.72431 25.7681 -66.88798 -31.22929 2.01056 -4.19704 2.894 0.10335 -5.63417 -2.75038 -3.86108 -8.42849 -1.9984 4.82964 1.18219 -7.34933 4.43404 2.8728 1.51767
-0.00076 0.57926 9e-05 182.64481 0 -3.03453 2.87407 2.26109 -3.31174 -34.69108 5.07055 3.04929 -13.14178 -78.24605 -80.51489 22.66801 71.7328 -20.52187 -1.81374 -6.06378 74.16111 72.63338 25.79079 -66.98731 -31.18548 2.01611 -4.195 2.89245 0.11088 -5.65024 -2.74043 -3.86389 -8.44153 -2.00125 4.82826 1.19247 -7.35497 4.44066 2.86854 1.51101
-0.00082 0.57926 9e-05 182.64694 0 -3.03533 2.87957 2.25357 -3.31907 -34.65999 5.07811 3.04731 -13.12685 -78.256 -80.47307 22.64522 71.74424 -20.51941 -1.81514 -6.00126 74.13579 72.55239 25.77179 -67.04462 -31.15975 2.02052 -4.20043 2.89461 0.11632 -5.65019 -2.73808 -3.86673 -8.44596 -2.00775 4.82991 1.19845 -7.35093 4.44226 2.86508 1.50414
-0.00086 0.57926 8e-05 182.64939 0 -3.03654 2.88572 2.24411 -3.32421 -34.62617 5.08452 3.04677 -13.13385 -78.2598 -80.45312 22.61985 71.76533 -20.51436 -1.81337 -5.94434 74.12446 72.47759 25.73874 -67.08879 -31.14075 2.02527 -4.2081 2.89808 0.12079 -5.64497 -2.73814 -3.86951 -8.44711 -2.01529 4.83266 1.20256 -7.34387 4.44231 2.86201 1.4977
-0.00091 0.57926 8e-05 182.65129 0 -3.03756 2.89152 2.23566 -3.33001 -34.59362 5.0908 3.04538 -13.12851 -78.26541 -80.42144 22.59622 71.78192 -20.51057 -1.81332 -5.88585 74.1068 72.40063 25.7125 -67.14061 -31.11917 2.03095 -4.21454 2.90088 0.12526 -5.64228 -2.73701 -3.87218 -8.44921 -2.02226 4.83487 1.20727 -7.33841 4.44321 2.85888 1.49167
-0.00096 0.57926 7e-05 182.65482 0 -3.03859 2.89754 2.22663 -3.33731 -34.56046 5.09986 3.04479 -13.13348 -78.27538 -80.39719 22.57011 71.79854 -20.50678 -1.81215 -5.82502 74.08889 72.32211 25.68456 -67.18565 -31.09557 2.0323 -4.22167 2.90398 0.13168 -5.63921 -2.7361 -3.8754 -8.45364 -2.02951 4.83724 1.21306 -7.33217 4.44363 2.85523 1.4832
-0.00101 0.57926 7e-05 182.65516 0 -3.03969 2.90324 2.21834 -3.34105 -34.5281 5.10301 3.04289 -13.12231 -78.27498 -80.36277 22.54851 71.81733 -20.50213 -1.8126 -5.76974 74.07458 72.24794 25.65707 -67.24172 -31.07767 2.04241 -4.22799 2.90677 0.13378 -5.63554 -2.73538 -3.87748 -8.45253 -2.03644 4.83954 1.21611 -7.32679 4.44461 2.85276 1.47981
-0.00104 0.57926 5e-05 182.64524 0 -3.04092 2.9081 2.21287 -3.33398 -34.4988 5.08803 3.03703 -13.0582 -78.24452 -80.29405 22.54083 71.84273 -20.49706 -1.81757 -5.72793 74.07047 72.18326 25.63092 -67.32951 -31.0752 2.07966 -4.2312 2.90832 0.12398 -5.6318 -2.73448 -3.87636 -8.43548 -2.04269 4.84138 1.21259 -7.32423 4.44766 2.85347 1.49121
-0.00106 0.57926 3e-05 182.63233 0 -3.04217 2.91256 2.20815 -3.32366 -34.47042 5.0675 3.02983 -12.9775 -78.20432 -80.21441 22.53765 71.86963 -20.49089 -1.82436 -5.69131 74.06879 72.1227 25.60639 -67.4291 -31.07794 2.12518 -4.23358 2.90951 0.1099 -5.62756 -2.73373 -3.8741 -8.41318 -2.04852 4.8431 1.20631 -7.32265 4.45128 2.85535 1.50755
-0.00109 0.57926 2e-05 182.62173 0 -3.04337 2.91709 2.20289 -3.31578 -34.44165 5.05082 3.02323 -12.90637 -78.17039 -80.14047 22.53184 71.89384 -20.48436 -1.83081 -5.65239 74.06379 72.0608 25.58305 -67.52455 -31.07755 2.16486 -4.2366 2.91091 0.09793 -5.62328 -2.73302 -3.8724 -8.39421 -2.05425 4.84488 1.20093 -7.32079 4.45454 2.8567 1.52107
-0.00112 0.57925 -0 182.60721 0 -3.04479 2.92215 2.19839 -3.30375 -34.41282 5.02847 3.01666 -12.82774 -78.12838 -80.06459 22.52834 71.92637 -20.48152 -1.8352 -5.61356 74.06906 71.9971 25.55053 -67.61459 -31.08096 2.21319 -4.23866 2.91219 0.08524 -5.61985 -2.73197 -3.87054 -8.37124 -2.06122 4.84671 1.19686 -7.31816 4.45818 2.85805 1.53702
-0.00114 0.57925 -2e-05 182.60002 0 -3.04574 2.92595 2.19254 -3.29962 -34.38416 5.01668 3.00974 -12.76015 -78.10109 -79.98938 22.52124 71.94238 -20.47059 -1.84423 -5.57555 74.05281 71.93778 25.53841 -67.71861 -31.07718 2.24566 -4.24241 2.91359 0.07302 -5.61471 -2.73161 -3.86874 -8.35526 -2.06553 4.84837 1.18957 -7.31737 4.46116 2.85966 1.54908
-0.00116 0.57926 -3e-05 182.61488 0 -3.04528 2.92683 2.18239 -3.31811 -34.35734 5.03484 3.00178 -12.73025 -78.11563 -79.92294 22.50263 71.90748 -20.439 -1.86667 -5.53997 73.98083 71.89205 25.57672 -67.86039 -31.05537 2.23052 -4.25174 2.91551 0.06352 -5.6041 -2.73318 -3.86729 -8.36125 -2.06232 4.84965 1.17272 -7.32187 4.4624 2.86189 1.5492
-0.00118 0.57926 -4e-05 182.637 0 -3.04433 2.92634 2.17093 -3.34468 -34.33028 5.06391 2.99358 -12.71145 -78.14542 -79.8568 22.48078 71.8568 -20.39901 -1.89354 -5.50493 73.8861 71.85028 25.63699 -68.01539 -31.02522 2.19942 -4.26266 2.91752 0.0546 -5.59196 -2.73542 -3.86594 -8.37423 -2.0565 4.85074 1.15296 -7.32815 4.46291 2.86431 1.54523
-0.00119 0.57926 -5e-05 182.65509 0 -3.04364 2.92621 2.16028 -3.36757 -34.30238 5.08836 2.98579 -12.68529 -78.16923 -79.78745 22.46016 71.81649 -20.36199 -1.91773 -5.46839 73.79907 71.80479 25.69037 -68.16324 -30.99723 2.17685 -4.27238 2.91938 0.04513 -5.58113 -2.73726 -3.86458 -8.38308 -2.05209 4.85186 1.13542 -7.33334 4.4636 2.8665 1.54312
